<?xml version="1.0" encoding="utf-8"?>
<!-- Generator: Adobe Illustrator 19.0.0, SVG Export Plug-In . SVG Version: 6.00 Build 0)  -->
<!DOCTYPE svg PUBLIC "-//W3C//DTD SVG 1.1//EN" "http://www.w3.org/Graphics/SVG/1.1/DTD/svg11.dtd">
<svg version="1.1" id="Layer_1" xmlns="http://www.w3.org/2000/svg" xmlns:xlink="http://www.w3.org/1999/xlink" x="0px" y="0px"
	 viewBox="0 0 766.2 132.2" style="enable-background:new 0 0 766.2 132.2;" xml:space="preserve">
<style type="text/css">
	.st0{fill:#02B95F;}
	.st1{fill:#D6FF73;}
	.st2{fill:#01B95D;}
	.st3{fill:#A7FF75;}
</style>
<g>
	<g>
		<g>
			<path class="st0" d="M210.5,67.6c-0.6,1-1.9,1.4-3,0.9c-2.1-1-4.5-1.8-6.9-1.8c-1.7,0-3.6,0.4-4.6,1.4c-0.6,0.6-1,1.4-1,2.2
				c0,1.1,0.8,1.8,1.6,2.2c1.1,0.7,2.8,1,4.8,1.7l4.2,1.3c2.8,0.9,5.7,2,8.2,4.3c2.9,2.7,3.9,5.7,3.9,9.5c0,6.6-2.9,10.8-5.1,13
				c-4.9,4.9-10.9,5.7-16.1,5.7c-6.1,0-12.6-1.2-18.6-5.7c-1-0.7-1.3-2.1-0.6-3.1l4.3-6.8c0.7-1.1,2.3-1.4,3.4-0.6
				c1.2,0.8,2.4,1.6,3.5,2.1c2.2,1.1,4.6,1.6,6.7,1.6c1,0,3.6,0,5-1.1c1-0.8,1.7-2,1.7-3.2c0-0.9-0.3-2-1.8-2.9
				c-1.1-0.7-2.6-1.1-4.9-1.8l-4-1.2c-2.9-0.9-5.9-2.4-8-4.6c-2.3-2.4-3.6-5.2-3.6-9c0-4.8,1.9-8.8,4.8-11.5c4.4-4.1,10.5-5,15-5
				c6,0,10.5,1.3,14.1,3c1.3,0.6,1.7,2.2,1,3.4L210.5,67.6z"/>
			<path class="st0" d="M267.6,56.8H279c1.3,0,2.3,1,2.3,2.3V104c0,1.3-1,2.3-2.3,2.3h-11.3c-1.3,0-2.3-1-2.3-2.3v-3.7
				c-4.3,6.7-10.6,7.7-14.7,7.7c-7.1,0-13.1-1.8-18.6-7.6c-5.2-5.6-7.2-12-7.2-18.6c0-8.3,3.1-15.5,7.7-20
				c4.3-4.3,10.3-6.8,17.2-6.8c4.2,0,11,1,15.6,7.2v-3.2C265.3,57.8,266.3,56.8,267.6,56.8z M244.9,72.5c-1.7,1.7-3.7,4.6-3.7,9
				c0,4.4,1.9,7.3,3.3,8.9c2.2,2.3,5.7,3.9,9.5,3.9c3.2,0,6.2-1.3,8.3-3.4c2.1-2,3.9-5.1,3.9-9.3c0-3.6-1.3-6.9-3.7-9.1
				c-2.4-2.3-6-3.4-8.9-3.4C250.3,68.9,247.1,70.3,244.9,72.5z"/>
			<path class="st0" d="M325.3,67.6c-0.6,1-1.9,1.4-3,0.9c-2.1-1-4.6-1.8-6.9-1.8c-1.7,0-3.6,0.4-4.6,1.4c-0.6,0.6-1,1.4-1,2.2
				c0,1.1,0.8,1.8,1.6,2.2c1.1,0.7,2.8,1,4.8,1.7l4.2,1.3c2.8,0.9,5.7,2,8.2,4.3c2.9,2.7,3.9,5.7,3.9,9.5c0,6.6-2.9,10.8-5.1,13
				c-4.9,4.9-10.9,5.7-16.1,5.7c-6.1,0-12.6-1.2-18.6-5.7c-1-0.7-1.3-2.1-0.6-3.1l4.3-6.8c0.7-1.1,2.3-1.4,3.4-0.6
				c1.2,0.8,2.4,1.6,3.5,2.1c2.2,1.1,4.6,1.6,6.7,1.6c1,0,3.6,0,5-1.1c1-0.8,1.7-2,1.7-3.2c0-0.9-0.3-2-1.8-2.9
				c-1.1-0.7-2.6-1.1-4.9-1.8l-4-1.2c-2.9-0.9-5.9-2.4-8-4.6c-2.3-2.4-3.6-5.2-3.6-9c0-4.8,1.9-8.8,4.8-11.5c4.4-4.1,10.5-5,15-5
				c6,0,10.5,1.3,14.1,3c1.3,0.6,1.7,2.2,1,3.4L325.3,67.6z"/>
			<path class="st0" d="M373.5,67.6c-0.6,1-1.9,1.4-3,0.9c-2.1-1-4.6-1.8-6.9-1.8c-1.7,0-3.6,0.4-4.6,1.4c-0.6,0.6-1,1.4-1,2.2
				c0,1.1,0.8,1.8,1.6,2.2c1.1,0.7,2.8,1,4.8,1.7l4.2,1.3c2.8,0.9,5.7,2,8.2,4.3c2.9,2.7,3.9,5.7,3.9,9.5c0,6.6-2.9,10.8-5.1,13
				c-4.9,4.9-10.9,5.7-16.1,5.7c-6.1,0-12.6-1.2-18.6-5.7c-1-0.7-1.3-2.1-0.6-3.1l4.3-6.8c0.7-1.1,2.3-1.4,3.4-0.6
				c1.2,0.8,2.4,1.6,3.5,2.1c2.2,1.1,4.6,1.6,6.7,1.6c1,0,3.6,0,5-1.1c1-0.8,1.7-2,1.7-3.2c0-0.9-0.3-2-1.8-2.9
				c-1.1-0.7-2.6-1.1-4.9-1.8l-4-1.2c-2.9-0.9-5.9-2.4-8-4.6c-2.3-2.4-3.6-5.2-3.6-9c0-4.8,1.9-8.8,4.8-11.5c4.4-4.1,10.5-5,15-5
				c6,0,10.5,1.3,14.1,3c1.3,0.6,1.7,2.2,1,3.4L373.5,67.6z"/>
			<path class="st0" d="M430.6,56.8H442c1.3,0,2.3,1,2.3,2.3V104c0,1.3-1,2.3-2.3,2.3h-11.3c-1.3,0-2.3-1-2.3-2.3v-3.7
				c-4.3,6.7-10.6,7.7-14.7,7.7c-7.1,0-13.1-1.8-18.6-7.6c-5.2-5.6-7.2-12-7.2-18.6c0-8.3,3.1-15.5,7.7-20
				c4.3-4.3,10.3-6.8,17.2-6.8c4.2,0,11,1,15.6,7.2v-3.2C428.3,57.8,429.3,56.8,430.6,56.8z M407.9,72.5c-1.7,1.7-3.7,4.6-3.7,9
				c0,4.4,1.9,7.3,3.3,8.9c2.2,2.3,5.7,3.9,9.5,3.9c3.2,0,6.2-1.3,8.3-3.4c2.1-2,3.9-5.1,3.9-9.3c0-3.6-1.3-6.9-3.7-9.1
				c-2.4-2.3-6-3.4-8.9-3.4C413.3,68.9,410.1,70.3,407.9,72.5z"/>
			<path class="st0" d="M474.1,69.7V104c0,1.3-1,2.3-2.3,2.3h-11.3c-1.3,0-2.3-1-2.3-2.3V69.7h-3.4c-1.3,0-2.3-1-2.3-2.3v-8.2
				c0-1.3,1-2.3,2.3-2.3h3.4V47c0-5.6,0.6-11.9,5.6-17.2c3.2-3.4,7.8-5.7,13.9-5.7c2.9,0,5.3,0.4,7.5,1.1c1,0.3,1.6,1.2,1.6,2.2v8.7
				c0,1.6-1.5,2.7-3,2.2c-1-0.3-2.1-0.5-3.1-0.5c-2.4,0-4,1.1-4.7,2c-1.8,2.3-1.8,6.2-1.8,8.6v8.3h10.3c1.3,0,2.3,1,2.3,2.3v8.2
				c0,1.3-1,2.3-2.3,2.3H474.1z"/>
			<path class="st0" d="M495.3,56.8h11.3c1.3,0,2.3,1,2.3,2.3v5.4c1.4-2.8,3.7-5.3,6.2-6.9c2.7-1.7,5.4-2.1,8.6-2.1
				c1.2,0,2.2,0.1,3.2,0.3c1.1,0.2,1.9,1.3,1.9,2.4l-0.6,9.8c-0.1,1.5-1.5,2.5-3,2.1c-1.4-0.4-2.8-0.6-4.4-0.6c-3.4,0-6,1.2-8,3.3
				c-3.6,3.8-3.9,9.1-3.9,13.3V104c0,1.3-1,2.3-2.3,2.3h-11.3c-1.3,0-2.3-1-2.3-2.3V59.1C493,57.8,494,56.8,495.3,56.8z"/>
			<path class="st0" d="M574.4,56.8h11.3c1.3,0,2.3,1,2.3,2.3V104c0,1.3-1,2.3-2.3,2.3h-11.3c-1.3,0-2.3-1-2.3-2.3v-3.7
				c-4.3,6.7-10.6,7.7-14.7,7.7c-7.1,0-13.1-1.8-18.6-7.6c-5.2-5.6-7.2-12-7.2-18.6c0-8.3,3.1-15.5,7.7-20
				c4.3-4.3,10.3-6.8,17.2-6.8c4.2,0,11,1,15.6,7.2v-3.2C572.1,57.8,573.1,56.8,574.4,56.8z M551.7,72.5c-1.7,1.7-3.7,4.6-3.7,9
				c0,4.4,1.9,7.3,3.3,8.9c2.2,2.3,5.7,3.9,9.5,3.9c3.2,0,6.2-1.3,8.3-3.4c2.1-2,3.9-5.1,3.9-9.3c0-3.6-1.3-6.9-3.7-9.1
				c-2.4-2.3-6-3.4-8.9-3.4C557,68.9,553.8,70.3,551.7,72.5z"/>
			<path class="st0" d="M632,67.6c-0.6,1-1.9,1.4-3,0.9c-2.1-1-4.6-1.8-6.9-1.8c-1.7,0-3.6,0.4-4.6,1.4c-0.6,0.6-1,1.4-1,2.2
				c0,1.1,0.8,1.8,1.6,2.2c1.1,0.7,2.8,1,4.8,1.7l4.2,1.3c2.8,0.9,5.7,2,8.2,4.3c2.9,2.7,3.9,5.7,3.9,9.5c0,6.6-2.9,10.8-5.1,13
				c-4.9,4.9-10.9,5.7-16.1,5.7c-6.1,0-12.6-1.2-18.6-5.7c-1-0.7-1.3-2.1-0.6-3.1l4.3-6.8c0.7-1.1,2.3-1.4,3.4-0.6
				c1.2,0.8,2.4,1.6,3.5,2.1c2.2,1.1,4.6,1.6,6.7,1.6c1,0,3.6,0,5-1.1c1-0.8,1.7-2,1.7-3.2c0-0.9-0.3-2-1.8-2.9
				c-1.1-0.7-2.6-1.1-4.9-1.8l-4-1.2c-2.9-0.9-5.9-2.4-8-4.6c-2.3-2.4-3.6-5.2-3.6-9c0-4.8,1.9-8.8,4.8-11.5c4.4-4.1,10.5-5,15-5
				c6,0,10.5,1.3,14.1,3c1.3,0.6,1.7,2.2,1,3.4L632,67.6z"/>
			<path class="st0" d="M658,87.9c5.7,0,10.1,4.4,10.1,10.1c0,5.7-4.4,10.1-10.1,10.1c-5.7,0-10.1-4.4-10.1-10.1
				C647.9,92.4,652.3,87.9,658,87.9z"/>
			<path class="st0" d="M682.2,28.5c10.1-6.7,20.5,3.7,13.8,13.8c-0.2,0.2-0.4,0.5-0.6,0.6c-10.1,6.7-20.5-3.7-13.8-13.8
				C681.8,28.8,682,28.6,682.2,28.5z M696.8,59.1V104c0,1.3-1,2.3-2.3,2.3h-11.3c-1.3,0-2.3-1-2.3-2.3V59.1c0-1.3,1-2.3,2.3-2.3
				h11.3C695.8,56.8,696.8,57.8,696.8,59.1z"/>
			<path class="st0" d="M758.7,100c-4.4,4.4-12,8-21.7,8c-9.7,0-17.2-3.6-21.7-8c-5-5-7.4-12.1-7.4-18.5s2.4-13.5,7.4-18.5
				c4.4-4.4,12-8,21.7-8c9.7,0,17.2,3.6,21.7,8c5,5,7.4,12.1,7.4,18.5S763.7,95,758.7,100z M728,72.2c-2.3,2.3-3.7,5.3-3.7,9.3
				c0,4.6,1.8,7.4,3.7,9.3c2,2,4.9,3.6,9.1,3.6c3.6,0,6.6-1.2,8.9-3.6c2.3-2.3,3.7-5.3,3.7-9.3c0-4-1.3-7-3.7-9.3
				c-2.3-2.3-5.3-3.6-9-3.6C733.4,68.7,730.4,69.9,728,72.2z"/>
		</g>
	</g>
	<g>
		<g>
			<path class="st1" d="M138.6,113.9c6.4-15,3.5-33.1-8.8-45.3c-16.1-16.1-77.3-51.1-93.4-35C23.3,46.6,44,89.4,60.8,113.7"/>
			<path class="st2" d="M52.6,113.1c-6-9.2-12-19.9-16.7-30.2c-12-26.5-13.4-44.6-4.1-53.9c9.3-9.3,27.4-7.9,53.9,4.1
				c18.7,8.5,39.2,21.5,48.6,30.9c13.8,13.8,17.4,34.1,10.6,51.2 M131.8,113.1c6.4-13,4.2-29.2-6.6-40C118.1,66,100,53.7,80.4,44.8
				c-14.6-6.6-24.9-9-31.5-9c-4,0-6.7,0.9-8,2.2c-3.5,3.5-3.9,16,6.7,39.5c6.4,14,14.5,27.3,21.2,36.3"/>
		</g>
		<g>
			<g>
				<path class="st3" d="M65,116.9c-8.2-15.6-5.7-35.3,7.4-48.4c16.1-16.1,77.3-51.1,93.4-35c12.7,12.7-6.4,53.5-23,78.1"/>
			</g>
			<g>
				<path class="st2" d="M56.6,113.9C50.6,97,54.3,77.5,67.8,64c9.4-9.4,29.9-22.4,48.6-30.9c26.5-12,44.6-13.4,53.9-4.1
					c9.3,9.3,7.9,27.4-4.1,53.9c-4.8,10.6-11,21.6-17.2,31 M133.9,113.1c6.6-9,14.4-21.9,20.6-35.5c10.6-23.5,10.3-35.9,6.7-39.5
					c-1.3-1.3-4-2.2-8-2.2c-6.6,0-16.9,2.4-31.5,9C102.1,53.7,84,66,76.9,73.1c-10.8,10.8-13,27-6.6,40"/>
			</g>
		</g>
		<g>
			<path class="st1" d="M62.8,113.9c-2.2-5.1-3.5-10.7-3.5-16.6c0-22.8,18.5-90.8,41.3-90.8s41.3,68,41.3,90.8
				c0,5.6-1.1,10.9-3.1,15.7"/>
			<path class="st2" d="M57.7,118.1c-3.1-6.3-4.8-13.4-4.8-20.9C52.9,76.4,70.2,0,100.6,0c13.1,0,25,13.8,35.2,41
				c7.2,19.3,12.5,42.9,12.5,56.2c0,6.1-1.2,11.9-3.2,17.3 M132.2,111.9c2.1-4.5,3.2-9.4,3.2-14.6c0-10-4.1-31.5-11.7-51.7
				c-9.1-24.1-18.1-32.7-23.1-32.7c-5,0-14.1,8.6-23.1,32.7c-7.6,20.2-11.7,41.7-11.7,51.7c0,6.9,2,13.3,5.4,18.7"/>
		</g>
		<g>
			<g>
				<g>
					<path class="st3" d="M70.7,68.5c9.3-9.3,33.8-25,55.8-33.4C119.4,19,110.4,6.4,100.6,6.4C80.8,6.4,64.3,57.5,60.3,86
						C62.2,79.6,65.6,73.6,70.7,68.5z"/>
				</g>
				<g>
					<path class="st2" d="M66.5,87.8l-12.6-2.7C56.2,68.6,62,48.2,68.6,33c9.5-21.9,20.3-33,32-33c11.6,0,22.3,11,31.8,32.5l2.7,6.2
						l-6.3,2.4c-20.9,8-44.5,23-53.5,31.9l0,0C71.1,77.2,68.1,82.3,66.5,87.8z M100.6,12.9c-8.8,0-19.9,21-27.3,44.8
						c10.8-8.4,27.7-18.8,44.4-26C110.8,18,104.5,12.9,100.6,12.9z"/>
				</g>
			</g>
		</g>
		<g>
			<path class="st2" d="M6.4,132.2c-2.8,0-5.4-1.9-6.2-4.7c-0.9-3.4,1.1-7,4.5-7.9l3.6-1c60.3-16.5,124.2-16.6,184.5-0.2l4.5,1.2
				c3.4,0.9,5.5,4.5,4.5,7.9c-0.9,3.4-4.5,5.5-7.9,4.5l-4.5-1.2C131.3,115,69.9,115.1,11.7,131l-3.6,1C7.6,132.2,7,132.2,6.4,132.2z
				"/>
		</g>
	</g>
</g>
</svg>
