<?xml version="1.0" encoding="utf-8"?>
<!-- Generator: Adobe Illustrator 19.0.0, SVG Export Plug-In . SVG Version: 6.00 Build 0)  -->
<!DOCTYPE svg PUBLIC "-//W3C//DTD SVG 1.1//EN" "http://www.w3.org/Graphics/SVG/1.1/DTD/svg11.dtd">
<svg version="1.1" id="Layer_1" xmlns="http://www.w3.org/2000/svg" xmlns:xlink="http://www.w3.org/1999/xlink" x="0px" y="0px"
	 viewBox="0 0 350.3 68.5" style="enable-background:new 0 0 350.3 68.5;" xml:space="preserve">
<style type="text/css">
	.st0{display:none;}
	.st1{display:inline;}
	.st2{fill:#7EC000;}
	.st3{display:none;fill:none;stroke:#000000;stroke-width:15;stroke-miterlimit:10;}
	.st4{fill:#231901;}
</style>
<g id="XMLID_1_" class="st0">
	<path id="XMLID_10_" class="st1" d="M23.6-24.9c-34.5,0-62.5-28-62.5-62.5c0-16.4,6.4-40.8,15.9-60.7c13-27.3,29.1-41.8,46.6-41.8
		c17.5,0,33.7,14.4,46.6,41.8c9.5,20,15.9,44.4,15.9,60.7C86.1-52.9,58.1-24.9,23.6-24.9z M23.6-164.9c-5.5,0-15,8.5-24.1,27.5
		c-8.8,18.6-13.4,39.2-13.4,50c0,20.7,16.8,37.5,37.5,37.5c20.7,0,37.5-16.8,37.5-37.5c0-10.8-4.6-31.4-13.4-50
		C38.6-156.4,29.1-164.9,23.6-164.9z"/>
</g>
<g id="XMLID_2_">
	<g id="XMLID_13_">
		<path id="XMLID_15_" class="st2" d="M33.2,68.5c-0.9,0-1.8-0.4-2.4-1.1c-0.8-1-1-2.4-0.3-3.6c5.5-9.8,3.7-22.1-4.2-30
			C24.5,31.9,21.9,30,19,28c-4.6-3-7.3-8.1-7.1-13.6C12.1,9,15,4.3,19.6,1.7c2-1.1,4.1-1.7,6.2-1.7c6.9,0,13.6,5.8,18.9,16.3
			c4.3,8.6,7,19.2,7,27.7c0,11-7,20.8-17.4,24.4C33.9,68.5,33.6,68.5,33.2,68.5z M25.8,6.3c-1,0-2,0.3-3.1,0.9
			c-2.7,1.5-4.4,4.2-4.5,7.4c-0.1,3.3,1.4,6.3,4.2,8.1c3.4,2.2,6.2,4.4,8.4,6.6c7.6,7.6,10.6,18.5,8.5,28.7c3.7-3.6,6-8.6,6-14
			C45.3,28.4,35.2,6.3,25.8,6.3z"/>
	</g>
	<g id="XMLID_9_">
		<path id="XMLID_4_" class="st2" d="M17.7,67.9c-1,0-2.1-0.2-3.1-0.7v0C5.7,62.9,0,53.8,0,43.9l0-0.1c0-4.5,2.6-8.6,6.6-10.6
			c4.1-2,8.9-1.6,12.6,1.1c1.4,1.1,2.6,2.1,3.6,3c7.9,7.9,7.9,20.7,0,28.5C21.4,67.2,19.6,67.9,17.7,67.9z M17.4,61.5
			c0.3,0.1,0.7,0.1,0.9-0.2c5.4-5.4,5.4-14.2,0-19.6c-0.7-0.7-1.7-1.6-2.9-2.4c-1.8-1.3-4-1.5-5.9-0.5c-1.9,1-3.1,2.8-3.1,5l0,0.1
			C6.3,51.4,10.7,58.3,17.4,61.5L17.4,61.5z"/>
	</g>
</g>
<path id="XMLID_6_" class="st3" d="M73.6-87.4c0,27.6-22.4,50-50,50s-50-22.4-50-50s22.4-90,50-90S73.6-115,73.6-87.4z"/>
<path id="XMLID_7_" class="st3" d="M73.6-87.4c0,27.6-22.4,50-50,50s-50-22.4-50-50s22.4-90,50-90S73.6-115,73.6-87.4z"/>
<path id="XMLID_8_" class="st3" d="M73.6-87.4c0,27.6-22.4,50-50,50s-50-22.4-50-50s22.4-90,50-90S73.6-115,73.6-87.4z"/>
<g id="XMLID_3_">
	<path id="XMLID_19_" class="st4" d="M78.4,35.3c-0.2,0.3-0.6,0.5-1,0.3c-1.1-0.6-2.4-1-3.7-1c-0.8,0-1.7,0.2-2.2,0.7
		c-0.3,0.3-0.5,0.7-0.5,1.1c0,0.5,0.4,0.9,0.8,1.1c0.5,0.3,1.4,0.5,2.3,0.8l2.1,0.7c1.4,0.4,2.8,1,4,2.1c1.4,1.3,1.9,2.8,1.9,4.6
		c0,3.2-1.4,5.3-2.5,6.4c-2.4,2.4-5.3,2.8-7.9,2.8c-3.1,0-6.4-0.6-9.4-3c-0.3-0.2-0.4-0.7-0.2-1l2.5-4c0.2-0.4,0.8-0.5,1.1-0.2
		c0.7,0.5,1.4,1,2,1.3c1.1,0.5,2.2,0.8,3.3,0.8c0.5,0,1.7,0,2.4-0.5c0.5-0.4,0.8-1,0.8-1.6c0-0.4-0.2-1-0.9-1.4
		c-0.5-0.3-1.3-0.5-2.4-0.9l-2-0.6c-1.4-0.4-2.9-1.2-3.9-2.2c-1.1-1.2-1.7-2.6-1.7-4.4c0-2.3,0.9-4.3,2.3-5.6c2.2-2,5.1-2.4,7.3-2.4
		c3.2,0,5.5,0.7,7.3,1.7c0.4,0.2,0.5,0.7,0.3,1.1L78.4,35.3z"/>
	<path id="XMLID_21_" class="st4" d="M106.1,29.7h6.3c0.4,0,0.8,0.3,0.8,0.8v22.7c0,0.4-0.3,0.8-0.8,0.8h-6.3
		c-0.4,0-0.8-0.3-0.8-0.8v-0.1c0-0.7-0.8-1-1.3-0.5c-1.9,1.9-4.3,2.2-5.9,2.2c-3.5,0-6.4-0.9-9.1-3.7c-2.6-2.7-3.5-5.9-3.5-9.1
		c0-4.1,1.5-7.6,3.8-9.8c2.1-2.1,5.1-3.3,8.4-3.3c1.7,0,4.3,0.3,6.4,2.2c0.5,0.4,1.3,0.1,1.3-0.6v0C105.4,30,105.7,29.7,106.1,29.7z
		 M95.4,37.4c-0.8,0.8-1.8,2.2-1.8,4.4c0,2.2,0.9,3.6,1.6,4.3c1.1,1.1,2.8,1.9,4.6,1.9c1.6,0,3-0.7,4.1-1.7c1-1,1.9-2.5,1.9-4.6
		c0-1.7-0.7-3.4-1.8-4.5c-1.2-1.1-2.9-1.7-4.3-1.7C98,35.6,96.4,36.3,95.4,37.4z"/>
	<path id="XMLID_24_" class="st4" d="M134.5,35.3c-0.2,0.3-0.6,0.5-1,0.3c-1.1-0.6-2.4-1-3.7-1c-0.8,0-1.7,0.2-2.2,0.7
		c-0.3,0.3-0.5,0.7-0.5,1.1c0,0.5,0.4,0.9,0.8,1.1c0.5,0.3,1.4,0.5,2.3,0.8l2.1,0.7c1.4,0.4,2.8,1,4,2.1c1.4,1.3,1.9,2.8,1.9,4.6
		c0,3.2-1.4,5.3-2.5,6.4c-2.4,2.4-5.3,2.8-7.9,2.8c-3.1,0-6.4-0.6-9.4-3c-0.3-0.2-0.4-0.7-0.2-1l2.5-4c0.2-0.4,0.8-0.5,1.1-0.2
		c0.7,0.5,1.4,1,2,1.3c1.1,0.5,2.2,0.8,3.3,0.8c0.5,0,1.7,0,2.4-0.5c0.5-0.4,0.8-1,0.8-1.6c0-0.4-0.2-1-0.9-1.4
		c-0.5-0.3-1.3-0.5-2.4-0.9l-2-0.6c-1.4-0.4-2.9-1.2-3.9-2.2c-1.1-1.2-1.7-2.6-1.7-4.4c0-2.3,0.9-4.3,2.3-5.6c2.2-2,5.1-2.4,7.3-2.4
		c3.2,0,5.5,0.7,7.3,1.7c0.4,0.2,0.5,0.7,0.3,1.1L134.5,35.3z"/>
	<path id="XMLID_26_" class="st4" d="M158.1,35.3c-0.2,0.3-0.6,0.5-1,0.3c-1.1-0.6-2.4-1-3.7-1c-0.8,0-1.7,0.2-2.2,0.7
		c-0.3,0.3-0.5,0.7-0.5,1.1c0,0.5,0.4,0.9,0.8,1.1c0.5,0.3,1.4,0.5,2.3,0.8l2.1,0.7c1.4,0.4,2.8,1,4,2.1c1.4,1.3,1.9,2.8,1.9,4.6
		c0,3.2-1.4,5.3-2.5,6.4c-2.4,2.4-5.3,2.8-7.9,2.8c-3.1,0-6.4-0.6-9.4-3c-0.3-0.2-0.4-0.7-0.2-1l2.5-4c0.2-0.4,0.8-0.5,1.1-0.2
		c0.7,0.5,1.4,1,2,1.3c1.1,0.5,2.2,0.8,3.3,0.8c0.5,0,1.7,0,2.4-0.5c0.5-0.4,0.8-1,0.8-1.6c0-0.4-0.2-1-0.9-1.4
		c-0.5-0.3-1.3-0.5-2.4-0.9l-2-0.6c-1.4-0.4-2.9-1.2-3.9-2.2c-1.1-1.2-1.7-2.6-1.7-4.4c0-2.3,0.9-4.3,2.3-5.6c2.2-2,5.1-2.4,7.3-2.4
		c3.2,0,5.5,0.7,7.3,1.7c0.4,0.2,0.5,0.7,0.3,1.1L158.1,35.3z"/>
	<path id="XMLID_28_" class="st4" d="M185.8,29.7h6.3c0.4,0,0.8,0.3,0.8,0.8v22.7c0,0.4-0.3,0.8-0.8,0.8h-6.3
		c-0.4,0-0.8-0.3-0.8-0.8v-0.1c0-0.7-0.8-1-1.3-0.5c-1.9,1.9-4.3,2.2-5.9,2.2c-3.5,0-6.4-0.9-9.1-3.7c-2.6-2.7-3.5-5.9-3.5-9.1
		c0-4.1,1.5-7.6,3.8-9.8c2.1-2.1,5.1-3.3,8.4-3.3c1.7,0,4.3,0.3,6.4,2.2c0.5,0.4,1.3,0.1,1.3-0.6v0C185.1,30,185.4,29.7,185.8,29.7z
		 M175.1,37.4c-0.8,0.8-1.8,2.2-1.8,4.4c0,2.2,0.9,3.6,1.6,4.3c1.1,1.1,2.8,1.9,4.6,1.9c1.6,0,3-0.7,4.1-1.7c1-1,1.9-2.5,1.9-4.6
		c0-1.7-0.7-3.4-1.8-4.5c-1.2-1.1-2.9-1.7-4.3-1.7C177.7,35.6,176.1,36.3,175.1,37.4z"/>
	<path id="XMLID_31_" class="st4" d="M207.5,36.8v16.4c0,0.4-0.3,0.8-0.8,0.8h-6.3c-0.4,0-0.8-0.3-0.8-0.8V36.8
		c0-0.4-0.3-0.8-0.8-0.8h-1.3c-0.4,0-0.8-0.3-0.8-0.8v-4.8c0-0.4,0.3-0.8,0.8-0.8h1.3c0.4,0,0.8-0.3,0.8-0.8v-4
		c0-2.7,0.3-5.8,2.7-8.4c1.6-1.7,3.8-2.8,6.8-2.8c1.5,0,2.8,0.2,3.9,0.6c0.3,0.1,0.5,0.4,0.5,0.7v5.1c0,0.5-0.5,0.9-1,0.7
		c-0.6-0.3-1.3-0.4-2-0.4c-1.2,0-2,0.5-2.3,1c-0.9,1.1-0.9,3-0.9,4.2v3.3c0,0.4,0.3,0.8,0.8,0.8h4.7c0.4,0,0.8,0.3,0.8,0.8v4.8
		c0,0.4-0.3,0.8-0.8,0.8h-4.7C207.8,36,207.5,36.3,207.5,36.8z"/>
	<path id="XMLID_33_" class="st4" d="M217.5,29.7h6.3c0.4,0,0.8,0.3,0.8,0.8l0,0.6c0,0.7,0.9,1,1.3,0.5c0.5-0.6,1.1-1.1,1.7-1.5
		c1.3-0.8,2.7-1,4.2-1c0.7,0,1.3,0.1,1.9,0.2c0.4,0.1,0.6,0.4,0.6,0.8l-0.3,5.6c0,0.5-0.5,0.8-1,0.7c-0.8-0.3-1.6-0.4-2.6-0.4
		c-1.7,0-2.9,0.6-3.9,1.6c-1.7,1.8-1.9,4.5-1.9,6.5v9.1c0,0.4-0.3,0.8-0.8,0.8h-6.3c-0.4,0-0.8-0.3-0.8-0.8V30.5
		C216.7,30,217,29.7,217.5,29.7z"/>
	<path id="XMLID_35_" class="st4" d="M256.1,29.7h6.3c0.4,0,0.8,0.3,0.8,0.8v22.7c0,0.4-0.3,0.8-0.8,0.8h-6.3
		c-0.4,0-0.8-0.3-0.8-0.8v-0.1c0-0.7-0.8-1-1.3-0.5c-1.9,1.9-4.3,2.2-5.9,2.2c-3.5,0-6.4-0.9-9.1-3.7c-2.6-2.7-3.5-5.9-3.5-9.1
		c0-4.1,1.5-7.6,3.8-9.8c2.1-2.1,5.1-3.3,8.4-3.3c1.7,0,4.3,0.3,6.4,2.2c0.5,0.4,1.3,0.1,1.3-0.6v0C255.3,30,255.7,29.7,256.1,29.7z
		 M245.4,37.4c-0.8,0.8-1.8,2.2-1.8,4.4c0,2.2,0.9,3.6,1.6,4.3c1.1,1.1,2.8,1.9,4.6,1.9c1.6,0,3-0.7,4.1-1.7c1-1,1.9-2.5,1.9-4.6
		c0-1.7-0.7-3.4-1.8-4.5c-1.2-1.1-2.9-1.7-4.3-1.7C248,35.6,246.4,36.3,245.4,37.4z"/>
	<path id="XMLID_38_" class="st4" d="M284.5,35.3c-0.2,0.3-0.6,0.5-1,0.3c-1.1-0.6-2.4-1-3.7-1c-0.8,0-1.7,0.2-2.2,0.7
		c-0.3,0.3-0.5,0.7-0.5,1.1c0,0.5,0.4,0.9,0.8,1.1c0.5,0.3,1.4,0.5,2.3,0.8l2.1,0.7c1.4,0.4,2.8,1,4,2.1c1.4,1.3,1.9,2.8,1.9,4.6
		c0,3.2-1.4,5.3-2.5,6.4c-2.4,2.4-5.3,2.8-7.9,2.8c-3.1,0-6.4-0.6-9.4-3c-0.3-0.2-0.4-0.7-0.2-1l2.5-4c0.2-0.4,0.8-0.5,1.1-0.2
		c0.7,0.5,1.4,1,2,1.3c1.1,0.5,2.2,0.8,3.3,0.8c0.5,0,1.7,0,2.4-0.5c0.5-0.4,0.8-1,0.8-1.6c0-0.4-0.2-1-0.9-1.4
		c-0.5-0.3-1.3-0.5-2.4-0.9l-2-0.6c-1.4-0.4-2.9-1.2-3.9-2.2c-1.1-1.2-1.7-2.6-1.7-4.4c0-2.3,0.9-4.3,2.3-5.6c2.2-2,5.1-2.4,7.3-2.4
		c3.2,0,5.5,0.7,7.3,1.7c0.4,0.2,0.5,0.7,0.3,1.1L284.5,35.3z"/>
	<path id="XMLID_40_" class="st4" d="M293.8,46.1c5.4-3.7,11,1.9,7.3,7.3c-0.1,0.1-0.1,0.2-0.2,0.2c-5.4,3.6-11-1.9-7.3-7.3
		C293.7,46.2,293.7,46.1,293.8,46.1z"/>
	<path id="XMLID_42_" class="st4" d="M309.2,15.9c5-3.4,10.1,1.8,6.8,6.8c-0.1,0.1-0.1,0.2-0.2,0.2c-5,3.4-10.1-1.8-6.8-6.8
		C309,16,309.1,15.9,309.2,15.9z M316.3,30.5v22.7c0,0.4-0.3,0.8-0.8,0.8h-6.3c-0.4,0-0.8-0.3-0.8-0.8V30.5c0-0.4,0.3-0.8,0.8-0.8
		h6.3C316,29.7,316.3,30,316.3,30.5z"/>
	<path id="XMLID_45_" class="st4" d="M346.6,50.8c-2.2,2.2-5.9,3.9-10.6,3.9c-4.7,0-8.4-1.7-10.6-3.9c-2.4-2.4-3.6-5.9-3.6-9
		c0-3.1,1.2-6.6,3.6-9c2.2-2.2,5.9-3.9,10.6-3.9c4.7,0,8.4,1.7,10.6,3.9c2.4,2.4,3.6,5.9,3.6,9C350.3,44.9,349.1,48.4,346.6,50.8z
		 M331.6,37.3c-1.1,1.1-1.8,2.6-1.8,4.6c0,2.2,0.9,3.6,1.8,4.6c1,1,2.4,1.7,4.5,1.7c1.7,0,3.2-0.6,4.3-1.7c1.1-1.1,1.8-2.6,1.8-4.6
		c0-2-0.7-3.4-1.8-4.6c-1.1-1.1-2.6-1.7-4.4-1.7C334.2,35.5,332.8,36.1,331.6,37.3z"/>
</g>
</svg>
