<?xml version="1.0" encoding="utf-8"?>
<!-- Generator: Adobe Illustrator 19.0.0, SVG Export Plug-In . SVG Version: 6.00 Build 0)  -->
<!DOCTYPE svg PUBLIC "-//W3C//DTD SVG 1.1//EN" "http://www.w3.org/Graphics/SVG/1.1/DTD/svg11.dtd">
<svg version="1.1" id="Layer_1" xmlns="http://www.w3.org/2000/svg" xmlns:xlink="http://www.w3.org/1999/xlink" x="0px" y="0px"
	 viewBox="0 0 350.7 60.5" style="enable-background:new 0 0 350.7 60.5;" xml:space="preserve">
<style type="text/css">
	.st0{fill:#005428;}
	.st1{fill:#A7FF75;}
	.st2{fill:#01B95D;}
</style>
<g>
	<g>
		<g>
			<path class="st0" d="M96.4,30.9c-0.3,0.5-0.9,0.6-1.4,0.4c-1-0.5-2.1-0.8-3.2-0.8c-0.8,0-1.6,0.2-2.1,0.7c-0.3,0.3-0.5,0.7-0.5,1
				c0,0.5,0.4,0.8,0.7,1c0.5,0.3,1.3,0.5,2.2,0.8l1.9,0.6c1.3,0.4,2.6,0.9,3.8,2c1.3,1.2,1.8,2.6,1.8,4.3c0,3-1.3,4.9-2.3,6
				c-2.2,2.2-5,2.6-7.4,2.6c-2.8,0-5.8-0.6-8.5-2.6c-0.4-0.3-0.6-1-0.3-1.4l2-3.1c0.3-0.5,1-0.7,1.5-0.3c0.5,0.4,1.1,0.7,1.6,1
				c1,0.5,2.1,0.7,3.1,0.7c0.5,0,1.6,0,2.3-0.5c0.5-0.4,0.8-0.9,0.8-1.5c0-0.4-0.2-0.9-0.8-1.3c-0.5-0.3-1.2-0.5-2.2-0.8L87.4,39
				c-1.3-0.4-2.7-1.1-3.7-2.1c-1.1-1.1-1.6-2.4-1.6-4.1c0-2.2,0.9-4,2.2-5.2c2-1.9,4.8-2.3,6.9-2.3c2.7,0,4.8,0.6,6.5,1.4
				c0.6,0.3,0.8,1,0.5,1.5L96.4,30.9z"/>
			<path class="st0" d="M122.5,26h5.2c0.6,0,1.1,0.5,1.1,1.1v20.6c0,0.6-0.5,1.1-1.1,1.1h-5.2c-0.6,0-1.1-0.5-1.1-1.1v-1.7
				c-2,3.1-4.8,3.5-6.7,3.5c-3.3,0-6-0.8-8.5-3.5c-2.4-2.5-3.3-5.5-3.3-8.5c0-3.8,1.4-7.1,3.5-9.2c2-2,4.7-3.1,7.9-3.1
				c1.9,0,5,0.5,7.1,3.3v-1.5C121.4,26.5,121.9,26,122.5,26z M112.1,33.2c-0.8,0.8-1.7,2.1-1.7,4.1s0.9,3.4,1.5,4.1
				c1,1.1,2.6,1.8,4.3,1.8c1.5,0,2.8-0.6,3.8-1.6c1-0.9,1.8-2.3,1.8-4.3c0-1.6-0.6-3.2-1.7-4.2c-1.1-1.1-2.7-1.6-4.1-1.6
				C114.6,31.5,113.1,32.2,112.1,33.2z"/>
			<path class="st0" d="M148.9,30.9c-0.3,0.5-0.9,0.6-1.4,0.4c-1-0.5-2.1-0.8-3.2-0.8c-0.8,0-1.6,0.2-2.1,0.7
				c-0.3,0.3-0.5,0.7-0.5,1c0,0.5,0.4,0.8,0.7,1c0.5,0.3,1.3,0.5,2.2,0.8l1.9,0.6c1.3,0.4,2.6,0.9,3.8,2c1.3,1.2,1.8,2.6,1.8,4.3
				c0,3-1.3,4.9-2.3,6c-2.2,2.2-5,2.6-7.4,2.6c-2.8,0-5.8-0.6-8.5-2.6c-0.4-0.3-0.6-1-0.3-1.4l2-3.1c0.3-0.5,1-0.7,1.5-0.3
				c0.5,0.4,1.1,0.7,1.6,1c1,0.5,2.1,0.7,3.1,0.7c0.5,0,1.6,0,2.3-0.5c0.5-0.4,0.8-0.9,0.8-1.5c0-0.4-0.2-0.9-0.8-1.3
				c-0.5-0.3-1.2-0.5-2.2-0.8l-1.8-0.6c-1.3-0.4-2.7-1.1-3.7-2.1c-1.1-1.1-1.6-2.4-1.6-4.1c0-2.2,0.9-4,2.2-5.2
				c2-1.9,4.8-2.3,6.9-2.3c2.7,0,4.8,0.6,6.5,1.4c0.6,0.3,0.8,1,0.5,1.5L148.9,30.9z"/>
			<path class="st0" d="M171,30.9c-0.3,0.5-0.9,0.6-1.4,0.4c-1-0.5-2.1-0.8-3.2-0.8c-0.8,0-1.6,0.2-2.1,0.7c-0.3,0.3-0.5,0.7-0.5,1
				c0,0.5,0.4,0.8,0.7,1c0.5,0.3,1.3,0.5,2.2,0.8l1.9,0.6c1.3,0.4,2.6,0.9,3.8,2c1.3,1.2,1.8,2.6,1.8,4.3c0,3-1.3,4.9-2.3,6
				c-2.2,2.2-5,2.6-7.4,2.6c-2.8,0-5.8-0.6-8.5-2.6c-0.4-0.3-0.6-1-0.3-1.4l2-3.1c0.3-0.5,1-0.7,1.5-0.3c0.5,0.4,1.1,0.7,1.6,1
				c1,0.5,2.1,0.7,3.1,0.7c0.5,0,1.6,0,2.3-0.5c0.5-0.4,0.8-0.9,0.8-1.5c0-0.4-0.2-0.9-0.8-1.3c-0.5-0.3-1.2-0.5-2.2-0.8L162,39
				c-1.3-0.4-2.7-1.1-3.7-2.1c-1.1-1.1-1.6-2.4-1.6-4.1c0-2.2,0.9-4,2.2-5.2c2-1.9,4.8-2.3,6.9-2.3c2.7,0,4.8,0.6,6.5,1.4
				c0.6,0.3,0.8,1,0.5,1.5L171,30.9z"/>
			<path class="st0" d="M197.1,26h5.2c0.6,0,1.1,0.5,1.1,1.1v20.6c0,0.6-0.5,1.1-1.1,1.1h-5.2c-0.6,0-1.1-0.5-1.1-1.1v-1.7
				c-2,3.1-4.8,3.5-6.7,3.5c-3.3,0-6-0.8-8.5-3.5c-2.4-2.5-3.3-5.5-3.3-8.5c0-3.8,1.4-7.1,3.5-9.2c2-2,4.7-3.1,7.9-3.1
				c1.9,0,5,0.5,7.1,3.3v-1.5C196,26.5,196.5,26,197.1,26z M186.7,33.2c-0.8,0.8-1.7,2.1-1.7,4.1s0.9,3.4,1.5,4.1
				c1,1.1,2.6,1.8,4.3,1.8c1.5,0,2.9-0.6,3.8-1.6c1-0.9,1.8-2.3,1.8-4.3c0-1.6-0.6-3.2-1.7-4.2c-1.1-1.1-2.7-1.6-4.1-1.6
				C189.2,31.5,187.7,32.2,186.7,33.2z"/>
			<path class="st0" d="M217,31.9v15.7c0,0.6-0.5,1.1-1.1,1.1h-5.2c-0.6,0-1.1-0.5-1.1-1.1V31.9h-1.6c-0.6,0-1.1-0.5-1.1-1.1v-3.8
				c0-0.6,0.5-1.1,1.1-1.1h1.6v-4.5c0-2.5,0.3-5.4,2.5-7.9c1.5-1.6,3.6-2.6,6.4-2.6c1.3,0,2.4,0.2,3.4,0.5c0.4,0.1,0.7,0.6,0.7,1v4
				c0,0.7-0.7,1.2-1.4,1c-0.5-0.2-1-0.2-1.4-0.2c-1.1,0-1.8,0.5-2.1,0.9c-0.8,1.1-0.8,2.8-0.8,3.9V26h4.7c0.6,0,1.1,0.5,1.1,1.1v3.8
				c0,0.6-0.5,1.1-1.1,1.1H217z"/>
			<path class="st0" d="M226.7,26h5.2c0.6,0,1.1,0.5,1.1,1.1v2.5c0.7-1.3,1.7-2.4,2.8-3.2c1.2-0.8,2.5-1,3.9-1c0.6,0,1,0,1.5,0.1
				c0.5,0.1,0.9,0.6,0.9,1.1l-0.3,4.5c0,0.7-0.7,1.2-1.4,1c-0.6-0.2-1.3-0.3-2-0.3c-1.6,0-2.7,0.6-3.7,1.5c-1.6,1.7-1.8,4.2-1.8,6.1
				v8.1c0,0.6-0.5,1.1-1.1,1.1h-5.2c-0.6,0-1.1-0.5-1.1-1.1V27.1C225.6,26.5,226.1,26,226.7,26z"/>
			<path class="st0" d="M262.9,26h5.2c0.6,0,1.1,0.5,1.1,1.1v20.6c0,0.6-0.5,1.1-1.1,1.1h-5.2c-0.6,0-1.1-0.5-1.1-1.1v-1.7
				c-2,3.1-4.8,3.5-6.7,3.5c-3.3,0-6-0.8-8.5-3.5c-2.4-2.5-3.3-5.5-3.3-8.5c0-3.8,1.4-7.1,3.5-9.2c2-2,4.7-3.1,7.9-3.1
				c1.9,0,5,0.5,7.1,3.3v-1.5C261.8,26.5,262.3,26,262.9,26z M252.5,33.2c-0.8,0.8-1.7,2.1-1.7,4.1s0.9,3.4,1.5,4.1
				c1,1.1,2.6,1.8,4.3,1.8c1.5,0,2.9-0.6,3.8-1.6c1-0.9,1.8-2.3,1.8-4.3c0-1.6-0.6-3.2-1.7-4.2c-1.1-1.1-2.7-1.6-4.1-1.6
				C255,31.5,253.5,32.2,252.5,33.2z"/>
			<path class="st0" d="M289.3,30.9c-0.3,0.5-0.9,0.6-1.4,0.4c-1-0.5-2.1-0.8-3.2-0.8c-0.8,0-1.6,0.2-2.1,0.7
				c-0.3,0.3-0.5,0.7-0.5,1c0,0.5,0.4,0.8,0.7,1c0.5,0.3,1.3,0.5,2.2,0.8l1.9,0.6c1.3,0.4,2.6,0.9,3.8,2c1.3,1.2,1.8,2.6,1.8,4.3
				c0,3-1.3,4.9-2.3,6c-2.2,2.2-5,2.6-7.4,2.6c-2.8,0-5.8-0.6-8.5-2.6c-0.4-0.3-0.6-1-0.3-1.4l2-3.1c0.3-0.5,1-0.7,1.5-0.3
				c0.5,0.4,1.1,0.7,1.6,1c1,0.5,2.1,0.7,3.1,0.7c0.5,0,1.6,0,2.3-0.5c0.5-0.4,0.8-0.9,0.8-1.5c0-0.4-0.2-0.9-0.8-1.3
				c-0.5-0.3-1.2-0.5-2.2-0.8l-1.8-0.6c-1.3-0.4-2.7-1.1-3.7-2.1c-1.1-1.1-1.6-2.4-1.6-4.1c0-2.2,0.9-4,2.2-5.2
				c2-1.9,4.8-2.3,6.9-2.3c2.7,0,4.8,0.6,6.5,1.4c0.6,0.3,0.8,1,0.5,1.5L289.3,30.9z"/>
			<path class="st0" d="M301.2,40.2c2.6,0,4.6,2,4.6,4.6c0,2.6-2,4.6-4.6,4.6c-2.6,0-4.6-2-4.6-4.6
				C296.5,42.3,298.6,40.2,301.2,40.2z"/>
			<path class="st0" d="M312.3,13c4.6-3.1,9.4,1.7,6.3,6.3c-0.1,0.1-0.2,0.2-0.3,0.3c-4.6,3.1-9.4-1.7-6.3-6.3
				C312,13.2,312.1,13.1,312.3,13z M318.9,27.1v20.6c0,0.6-0.5,1.1-1.1,1.1h-5.2c-0.6,0-1.1-0.5-1.1-1.1V27.1c0-0.6,0.5-1.1,1.1-1.1
				h5.2C318.4,26,318.9,26.5,318.9,27.1z"/>
			<path class="st0" d="M347.3,45.8c-2,2-5.5,3.7-9.9,3.7c-4.4,0-7.9-1.6-9.9-3.7c-2.3-2.3-3.4-5.5-3.4-8.4c0-2.9,1.1-6.2,3.4-8.4
				c2-2,5.5-3.7,9.9-3.7c4.4,0,7.9,1.6,9.9,3.7c2.3,2.3,3.4,5.5,3.4,8.4C350.7,40.2,349.6,43.5,347.3,45.8z M333.2,33.1
				c-1.1,1.1-1.7,2.4-1.7,4.3c0,2.1,0.8,3.4,1.7,4.3c0.9,0.9,2.2,1.6,4.2,1.6c1.6,0,3-0.6,4.1-1.6c1.1-1.1,1.7-2.4,1.7-4.3
				c0-1.8-0.6-3.2-1.7-4.3c-1.1-1.1-2.4-1.6-4.1-1.6C335.7,31.4,334.3,32,333.2,33.1z"/>
		</g>
	</g>
	<g>
		<g>
			<path class="st1" d="M63.4,52.1c2.9-6.9,1.6-15.1-4-20.8C52,24,24,8,16.7,15.3c-6,6,3.5,25.6,11.2,36.7"/>
			<path class="st0" d="M24.1,51.7c-2.8-4.2-5.5-9.1-7.6-13.8c-5.5-12.1-6.1-20.4-1.9-24.7c4.2-4.2,12.5-3.6,24.7,1.9
				C47.8,19,57.2,25,61.5,29.3c6.3,6.3,8,15.6,4.9,23.5 M60.3,51.7c2.9-5.9,1.9-13.4-3-18.3c-3.2-3.2-11.5-8.9-20.5-12.9
				c-6.7-3-11.4-4.1-14.4-4.1c-1.8,0-3,0.4-3.7,1c-1.6,1.6-1.8,7.3,3.1,18.1c2.9,6.4,6.6,12.5,9.7,16.6"/>
		</g>
		<g>
			<g>
				<path class="st2" d="M29.7,53.5c-3.7-7.1-2.6-16.1,3.4-22.1C40.5,24,68.5,8,75.9,15.3c5.8,5.8-2.9,24.5-10.5,35.7"/>
			</g>
			<g>
				<path class="st0" d="M25.9,52.1c-2.8-7.7-1.1-16.7,5.1-22.8C35.3,25,44.7,19,53.3,15.1C65.4,9.6,73.7,9,77.9,13.3
					c4.2,4.2,3.6,12.6-1.9,24.7c-2.2,4.8-5,9.9-7.9,14.2 M61.3,51.7c3-4.1,6.6-10,9.4-16.2c4.9-10.7,4.7-16.4,3.1-18.1
					c-0.6-0.6-1.8-1-3.7-1c-3,0-7.7,1.1-14.4,4.1c-9,4.1-17.3,9.7-20.5,12.9c-4.9,4.9-6,12.3-3,18.3"/>
			</g>
		</g>
		<g>
			<path class="st1" d="M28.7,52.1c-1-2.3-1.6-4.9-1.6-7.6C27.1,34.1,35.6,3,46,3s18.9,31.1,18.9,41.6c0,2.6-0.5,5-1.4,7.2"/>
			<path class="st0" d="M26.4,54.1c-1.4-2.9-2.2-6.1-2.2-9.6C24.2,35,32.1,0,46,0c6,0,11.4,6.3,16.1,18.8c3.3,8.8,5.7,19.6,5.7,25.7
				c0,2.8-0.5,5.5-1.5,7.9 M60.5,51.2c0.9-2,1.5-4.3,1.5-6.7c0-4.6-1.9-14.4-5.3-23.7c-4.2-11-8.3-15-10.6-15s-6.4,3.9-10.6,15
				c-3.5,9.2-5.3,19.1-5.3,23.7c0,3.1,0.9,6.1,2.5,8.5"/>
		</g>
		<g>
			<g>
				<g>
					<path class="st2" d="M32.3,31.4c4.3-4.3,15.4-11.4,25.5-15.3C54.6,8.7,50.5,3,46,3c-9,0-16.6,23.4-18.5,36.4
						C28.4,36.4,30,33.7,32.3,31.4z"/>
				</g>
				<g>
					<path class="st0" d="M30.4,40.2l-5.8-1.3c1.1-7.5,3.7-16.9,6.7-23.8C35.8,5.1,40.7,0,46,0c5.3,0,10.2,5,14.5,14.9l1.2,2.8
						l-2.9,1.1c-9.6,3.6-20.4,10.5-24.5,14.6l0,0C32.5,35.3,31.2,37.7,30.4,40.2z M46,5.9c-4,0-9.1,9.6-12.5,20.5
						c4.9-3.9,12.7-8.6,20.3-11.9C50.7,8.2,47.8,5.9,46,5.9z"/>
				</g>
			</g>
		</g>
		<g>
			<path class="st0" d="M3,60.5c-1.3,0-2.5-0.9-2.8-2.2c-0.4-1.6,0.5-3.2,2.1-3.6l1.6-0.5c27.6-7.6,56.8-7.6,84.5-0.1l2.1,0.6
				c1.6,0.4,2.5,2,2.1,3.6c-0.4,1.6-2,2.5-3.6,2.1l-2.1-0.6C60.1,52.6,32,52.7,5.4,60l-1.6,0.5C3.5,60.5,3.2,60.5,3,60.5z"/>
		</g>
	</g>
</g>
</svg>
