<?xml version="1.0" encoding="utf-8"?>
<!-- Generator: Adobe Illustrator 19.0.0, SVG Export Plug-In . SVG Version: 6.00 Build 0)  -->
<!DOCTYPE svg PUBLIC "-//W3C//DTD SVG 1.1//EN" "http://www.w3.org/Graphics/SVG/1.1/DTD/svg11.dtd">
<svg version="1.1" id="Layer_1" xmlns="http://www.w3.org/2000/svg" xmlns:xlink="http://www.w3.org/1999/xlink" x="0px" y="0px"
	 viewBox="-413.9 324.5 312.5 312.5" style="enable-background:new -413.9 324.5 312.5 312.5;" xml:space="preserve">
<style type="text/css">
	.st0{fill:#005428;}
	.st1{fill:#A7FF75;}
	.st2{fill:#01B95D;}
</style>
<rect x="-413.9" y="324.5" class="st0" width="312.5" height="312.5"/>
<g>
	<g>
		<g>
			<path class="st1" d="M-204.5,549c9.1-21.6,5-47.2-12.5-65c-23.1-22.8-110.6-72.8-133.4-50c-18.8,18.8,10.9,80,35,114.7"/>
			<path class="st0" d="M-327.3,547.8c-8.8-13.1-17.2-28.4-23.8-43.1c-17.2-37.8-19.1-63.8-5.9-77.2c13.1-13.1,39.1-11.2,77.2,5.9
				c26.6,12.2,55.9,30.9,69.4,44.4c19.7,19.7,25,48.8,15.3,73.4 M-214.2,547.8c9.1-18.4,5.9-41.9-9.4-57.2
				c-10-10-35.9-27.8-64.1-40.3c-20.9-9.4-35.6-12.8-45-12.8c-5.6,0-9.4,1.2-11.6,3.1c-5,5-5.6,22.8,9.7,56.6
				c9.1,20,20.6,39.1,30.3,51.9"/>
		</g>
		<g>
			<g>
				<path class="st2" d="M-309.8,553.4c-11.6-22.2-8.1-50.3,10.6-69.1c23.1-23.1,110.6-73.1,133.8-50.3
					c18.1,18.1-9.1,76.6-32.8,111.6"/>
			</g>
			<g>
				<path class="st0" d="M-321.7,549c-8.8-24.1-3.4-52.2,15.9-71.2c13.4-13.4,42.8-32.2,69.7-44.4c37.8-17.2,63.7-19.1,76.9-5.6
					c13.1,13.1,11.2,39.4-5.9,77.2c-6.9,15-15.6,30.9-24.7,44.4 M-211,547.8c9.4-12.8,20.6-31.2,29.4-50.6
					c15.3-33.4,14.7-51.2,9.7-56.6c-1.9-1.9-5.6-3.1-11.6-3.1c-9.4,0-24.1,3.4-45,12.8c-28.1,12.8-54.1,30.3-64.1,40.3
					c-15.3,15.3-18.8,38.4-9.4,57.2"/>
			</g>
		</g>
		<g>
			<path class="st1" d="M-312.9,549c-3.1-7.2-5-15.3-5-23.8c0-32.5,26.6-129.7,59.1-129.7s59.1,97.2,59.1,130
				c0,8.1-1.6,15.6-4.4,22.5"/>
			<path class="st0" d="M-320.1,555.3c-4.4-9.1-6.9-19.1-6.9-30c0-29.7,24.7-139.1,68.1-139.1c18.8,0,35.6,19.7,50.3,58.8
				c10.3,27.5,17.8,61.2,17.8,80.3c0,8.8-1.6,17.2-4.7,24.7 M-213.5,546.2c2.8-6.2,4.7-13.4,4.7-20.9c0-14.4-5.9-45-16.6-74.1
				c-13.1-34.4-25.9-46.9-33.1-46.9s-20,12.2-33.1,46.9c-10.9,28.8-16.6,59.7-16.6,74.1c0,9.7,2.8,19.1,7.8,26.6"/>
		</g>
		<g>
			<g>
				<g>
					<path class="st2" d="M-301.7,484.3c13.4-13.4,48.1-35.6,79.7-47.8c-10-23.1-22.8-40.9-36.9-40.9c-28.1,0-51.9,73.1-57.8,113.8
						C-313.9,500-308.9,491.5-301.7,484.3z"/>
				</g>
				<g>
					<path class="st0" d="M-307.6,511.8l-18.1-4.1c3.4-23.4,11.6-52.8,20.9-74.4c14.1-31.2,29.4-47.2,45.9-47.2s31.9,15.6,45.3,46.6
						l3.8,8.8l-9.1,3.4c-30,11.2-63.8,32.8-76.6,45.6l0,0C-301,496.5-305.1,504-307.6,511.8z M-258.9,404.7
						c-12.5,0-28.4,30-39.1,64.1c15.3-12.2,39.7-26.9,63.4-37.2C-244.2,411.8-253.2,404.7-258.9,404.7z"/>
				</g>
			</g>
		</g>
		<g>
			<path class="st0" d="M-393.2,575.3c-4.1,0-7.8-2.8-8.8-6.9c-1.2-5,1.6-10,6.6-11.2l5-1.6c86.2-23.8,177.5-23.8,264.1-0.3l6.6,1.9
				c5,1.2,7.8,6.2,6.6,11.2c-1.3,5-6.2,7.8-11.2,6.6l-6.6-1.9c-83.8-22.5-171.6-22.2-254.7,0.6l-5,1.6
				C-391.7,575.3-392.6,575.3-393.2,575.3z"/>
		</g>
	</g>
</g>
</svg>
